{"asset":{"version":"2.0","generator":"OpenEUV original concept asset generator"},"scene":0,"scenes":[{"nodes":[0,1,2,3,4,5]}],"nodes":[{"name":"ReticleFrame","mesh":0,"translation":[0,0,0],"scale":[2.7,0.18,2.0]},{"name":"ReflectiveMask","mesh":0,"translation":[0,0.18,0],"scale":[2.1,0.08,1.45]},{"name":"ShieldingConcept-L","mesh":0,"translation":[-1.25,0.35,0],"scale":[0.18,0.55,1.75]},{"name":"ShieldingConcept-R","mesh":0,"translation":[1.25,0.35,0],"scale":[0.18,0.55,1.75]},{"name":"StageGuide-A","mesh":1,"translation":[0,-0.25,-1.15],"rotation":[0,0,0,1],"scale":[0.11,2.5,0.11]},{"name":"StageGuide-B","mesh":1,"translation":[0,-0.25,1.15],"rotation":[0,0,0,1],"scale":[0.11,2.5,0.11]}],"meshes":[{"name":"UnitBox","primitives":[{"attributes":{"POSITION":0,"NORMAL":1},"indices":2,"material":0}]},{"name":"UnitCylinder","primitives":[{"attributes":{"POSITION":3,"NORMAL":4},"indices":5,"material":1}]}],"materials":[{"name":"FrameMaterial","pbrMetallicRoughness":{"baseColorFactor":[0.15,0.45,0.65,1],"metallicFactor":0.75,"roughnessFactor":0.25}},{"name":"OpticMaterial","pbrMetallicRoughness":{"baseColorFactor":[0.55,0.42,0.9,1],"metallicFactor":0.9,"roughnessFactor":0.12}}],"buffers":[{"byteLength":3576,"uri":"data:application/octet-stream;base64,"}],"bufferViews":[{"buffer":0,"byteOffset":0,"byteLength":288,"target":34962},{"buffer":0,"byteOffset":288,"byteLength":288,"target":34962},{"buffer":0,"byteOffset":576,"byteLength":72,"target":34963},{"buffer":0,"byteOffset":648,"byteLength":1176,"target":34962},{"buffer":0,"byteOffset":1824,"byteLength":1176,"target":34962},{"buffer":0,"byteOffset":3000,"byteLength":576,"target":34963}],"accessors":[{"bufferView":0,"componentType":5126,"count":24,"type":"VEC3","min":[-0.5,-0.5,-0.5],"max":[0.5,0.5,0.5]},{"bufferView":1,"componentType":5126,"count":24,"type":"VEC3"},{"bufferView":2,"componentType":5123,"count":36,"type":"SCALAR","min":[0],"max":[23]},{"bufferView":3,"componentType":5126,"count":98,"type":"VEC3","min":[-0.5,-0.5,-0.5],"max":[0.5,0.5,0.5]},{"bufferView":4,"componentType":5126,"count":98,"type":"VEC3"},{"bufferView":5,"componentType":5123,"count":288,"type":"SCALAR","min":[0],"max":[97]}]}