{"asset":{"version":"2.0","generator":"OpenEUV original conceptual asset"},"scene":0,"scenes":[{"nodes":[0]}],"buffers":[{"byteLength":168,"uri":"data:application/octet-stream;base64,"}],"bufferViews":[{"buffer":0,"byteOffset":0,"byteLength":96,"target":34962},{"buffer":0,"byteOffset":96,"byteLength":72,"target":34963}],"accessors":[{"bufferView":0,"componentType":5126,"count":8,"type":"VEC3","min":[-0.5,-0.5,-0.5],"max":[0.5,0.5,0.5]},{"bufferView":1,"componentType":5123,"count":36,"type":"SCALAR","min":[0],"max":[7]}],"materials":[{"name":"frame","pbrMetallicRoughness":{"baseColorFactor":[0.18,0.35,0.5,1],"metallicFactor":0.7,"roughnessFactor":0.35}},{"name":"collector","pbrMetallicRoughness":{"baseColorFactor":[0.68,0.55,0.95,1],"metallicFactor":0.9,"roughnessFactor":0.18}},{"name":"source","pbrMetallicRoughness":{"baseColorFactor":[1.0,0.62,0.18,1],"metallicFactor":0.25,"roughnessFactor":0.3}},{"name":"cyan","pbrMetallicRoughness":{"baseColorFactor":[0.25,0.85,0.9,1],"metallicFactor":0.4,"roughnessFactor":0.25}}],"meshes":[{"name":"frameBox","primitives":[{"attributes":{"POSITION":0},"indices":1,"material":0}]},{"name":"collectorBox","primitives":[{"attributes":{"POSITION":0},"indices":1,"material":1}]},{"name":"sourceBox","primitives":[{"attributes":{"POSITION":0},"indices":1,"material":2}]},{"name":"cyanBox","primitives":[{"attributes":{"POSITION":0},"indices":1,"material":3}]}],"nodes":[{"name":"OpenEUV_SourceCollector","children":[1,2,3,4,5,6,7,8,9,10,11,12,13,14,15,16,17]},{"name":"frameA","mesh":0,"translation":[-2.2,0,-1.15],"scale":[0.12,2.4,0.12]},{"name":"frameB","mesh":0,"translation":[-2.2,0,1.15],"scale":[0.12,2.4,0.12]},{"name":"frameC","mesh":0,"translation":[2.2,0,-1.15],"scale":[0.12,2.4,0.12]},{"name":"frameD","mesh":0,"translation":[2.2,0,1.15],"scale":[0.12,2.4,0.12]},{"name":"collector1","mesh":1,"translation":[1.25,0.15,0],"scale":[0.12,1.9,1.9]},{"name":"collector2","mesh":1,"translation":[1.05,0.15,0],"scale":[0.12,1.4,1.4]},{"name":"collector3","mesh":1,"translation":[0.85,0.15,0],"scale":[0.12,0.9,0.9]},{"name":"plasma","mesh":2,"translation":[-0.2,0.15,0],"scale":[0.28,0.28,0.28]},{"name":"dropletGen","mesh":3,"translation":[-0.85,1.25,0],"scale":[0.35,0.6,0.35]},{"name":"laserInput","mesh":3,"translation":[-1.75,0.15,0],"scale":[1.5,0.22,0.22]},{"name":"focusTube","mesh":0,"translation":[2.55,0.15,0],"scale":[1.1,0.55,0.55]},{"name":"drop1","mesh":2,"translation":[-0.85,0.86,0],"scale":[0.08,0.08,0.08]},{"name":"drop2","mesh":2,"translation":[-0.85,0.68,0],"scale":[0.08,0.08,0.08]},{"name":"drop3","mesh":2,"translation":[-0.85,0.5,0],"scale":[0.08,0.08,0.08]},{"name":"drop4","mesh":2,"translation":[-0.85,0.32,0],"scale":[0.08,0.08,0.08]},{"name":"beamTop","mesh":0,"translation":[0,1.1,1.15],"scale":[4.5,0.12,0.12]},{"name":"beamBottom","mesh":0,"translation":[0,-1.1,-1.15],"scale":[4.5,0.12,0.12]}]}